<svg xmlns="http://www.w3.org/2000/svg" version="1.1" preserveAspectRatio="none" viewBox="0 0 26 26" style="transform: rotate(0deg) scale(-1, 1);"><path stroke-width="0" d="M26 13c0 1.684-.582 3.238-1.742 4.664-1.16 1.426-2.734 2.555-4.73 3.383-1.992.824-4.168 1.238-6.527 1.238-.676 0-1.379-.039-2.105-.117-1.914 1.695-4.137 2.863-6.672 3.512-.473.137-1.027.242-1.656.32-.164.02-.309-.023-.441-.129-.129-.109-.215-.25-.254-.422v-.016c-.027-.039-.031-.098-.008-.172l.031-.148.063-.137.09-.129.102-.125.113-.129.453-.5.5-.555c.102-.109.25-.301.449-.57.199-.273.355-.52.473-.742.113-.223.246-.508.391-.855.145-.348.27-.715.375-1.102-1.516-.863-2.715-1.926-3.59-3.191-.875-1.27-1.313-2.629-1.313-4.078 0-1.258.344-2.461 1.031-3.605.688-1.145 1.609-2.137 2.77-2.969 1.16-.832 2.543-1.492 4.148-1.98 1.605-.488 3.289-.73 5.051-.73 2.359 0 4.535.414 6.527 1.238 1.996.828 3.57 1.957 4.73 3.383 1.16 1.426 1.742 2.98 1.742 4.664z" style="stroke: rgb(198, 198, 198); fill: rgb(198, 198, 198); opacity: 1;"></path></svg>