<svg xmlns="http://www.w3.org/2000/svg" version="1.1" preserveAspectRatio="none" viewBox="0 0 26 26"><path stroke-width="0" d="M12.145 12.994c0-.94-.334-1.748-.998-2.412-.668-.668-1.472-1.002-2.416-1.002-.94 0-1.744.334-2.412 1.002-.668.664-.998 1.472-.998 2.412s.33 1.748.998 2.412c.668.668 1.472 1.002 2.412 1.002.944 0 1.748-.334 2.416-1.002.664-.664.998-1.472.998-2.412zm10.241 6.827c0-.463-.169-.862-.506-1.203-.337-.337-.74-.506-1.203-.506-.459 0-.862.169-1.199.506-.337.341-.506.74-.506 1.203 0 .47.165.872.499 1.206.334.334.736.499 1.206.499.474 0 .876-.165 1.209-.499.33-.334.499-.736.499-1.206zm0-13.654c0-.459-.169-.861-.506-1.199-.337-.337-.74-.506-1.203-.506-.459 0-.862.169-1.199.506-.337.337-.506.74-.506 1.199 0 .474.165.876.499 1.206.334.334.736.503 1.206.503.474 0 .876-.169 1.209-.503.33-.33.499-.732.499-1.206zm-5.118 5.613v2.466c0 .09-.032.176-.094.262-.064.083-.136.13-.215.14l-2.067.32c-.096.309-.237.646-.424 1.013.301.427.7.937 1.199 1.533.061.09.094.179.094.266 0 .108-.032.194-.094.255-.205.266-.571.664-1.102 1.192-.527.531-.876.793-1.045.793-.096 0-.19-.028-.28-.094l-1.533-1.199c-.33.169-.671.309-1.026.413-.1.962-.201 1.651-.309 2.067-.061.211-.194.32-.399.32h-2.48c-.096 0-.187-.032-.266-.1-.083-.064-.126-.143-.133-.233l-.309-2.039c-.301-.09-.635-.226-.998-.413l-1.576 1.184c-.061.064-.151.094-.266.094-.096 0-.19-.032-.28-.104-1.282-1.184-1.92-1.896-1.92-2.135 0-.079.032-.162.094-.251l.546-.708c.277-.348.484-.617.629-.815-.205-.391-.359-.753-.467-1.092l-2.028-.32c-.086-.011-.162-.054-.226-.13-.061-.075-.094-.162-.094-.258v-2.466c0-.09.032-.176.094-.262.064-.083.133-.13.215-.14l2.064-.32c.1-.309.241-.646.427-1.013-.301-.427-.7-.937-1.199-1.533-.061-.096-.094-.187-.094-.266 0-.108.032-.198.094-.269.194-.266.56-.661 1.094-1.184.531-.524.883-.786 1.052-.786.096 0 .19.028.28.094l1.533 1.199c.301-.162.646-.301 1.026-.427.096-.958.201-1.644.309-2.053.061-.211.194-.32.399-.32h2.48c.096 0 .187.032.266.1.079.064.126.143.133.233l.309 2.039c.301.09.635.226.998.413l1.576-1.184c.068-.064.158-.094.266-.094.096 0 .19.032.28.104 1.278 1.184 1.92 1.896 1.92 2.135 0 .079-.032.162-.094.251l-.56.721c-.269.337-.467.603-.599.8.205.424.356.789.452 1.092l2.024.309c.09.018.165.064.23.14.061.075.094.162.094.258zm8.532 7.107v1.866c0 .14-.664.28-1.988.413-.104.241-.241.47-.399.693.452 1.005.678 1.619.678 1.841l-.054.094c-1.084.629-1.633.944-1.651.944-.072 0-.277-.209-.614-.625-.337-.42-.567-.721-.693-.908l-.402.028-.399-.028c-.126.187-.356.488-.693.908-.337.416-.542.625-.614.625-.018 0-.567-.316-1.655-.944l-.051-.094c0-.222.226-.836.678-1.841-.162-.222-.294-.452-.399-.693-1.324-.133-1.988-.273-1.988-.413v-1.866c0-.143.664-.28 1.988-.413.115-.258.248-.492.399-.697-.452-1.002-.678-1.615-.678-1.838l.051-.094.467-.266.789-.456.399-.211c.072 0 .277.205.614.621.337.413.567.71.693.898l.399-.025.402.025c.452-.632.862-1.127 1.228-1.493l.079-.025c.036 0 .585.312 1.651.934l.054.094c0 .222-.226.836-.678 1.838.151.205.284.438.399.697 1.324.133 1.988.269 1.988.413zm0-13.654v1.866c0 .143-.664.28-1.988.413-.104.241-.241.474-.399.697.452 1.002.678 1.615.678 1.838l-.054.094c-1.084.632-1.633.947-1.651.947-.072 0-.277-.209-.614-.629-.337-.416-.567-.718-.693-.904l-.402.025-.399-.025c-.126.187-.356.488-.693.904-.337.42-.542.629-.614.629-.018 0-.567-.316-1.655-.947l-.051-.094c0-.222.226-.836.678-1.838-.162-.222-.294-.456-.399-.697-1.324-.133-1.988-.269-1.988-.413v-1.866c0-.14.664-.28 1.988-.413.115-.258.248-.488.399-.693-.452-1.005-.678-1.619-.678-1.841l.051-.094.467-.266.789-.452c.248-.143.38-.215.399-.215.072 0 .277.209.614.621.337.413.567.714.693.901l.399-.028.402.028c.452-.632.862-1.13 1.228-1.493l.079-.028c.036 0 .585.312 1.651.934l.054.094c0 .222-.226.836-.678 1.841.151.205.284.435.399.693 1.324.133 1.988.273 1.988.413z" style="stroke: rgb(255, 255, 255); fill: rgb(255, 255, 255);"></path></svg>