<svg xmlns="http://www.w3.org/2000/svg" version="1.1" preserveAspectRatio="none" viewBox="0 0 26 26"><path stroke-width="0" d="M 13.1523 7 L 17.4121 7 L 11.123 19.415 C 10.2783 21.168 12.6934 22.2832 15.4277 21.168 L 14.3115 24.9727 C 12.7871 26 12.0791 26 11.167 26 C 8.7539 26 4.6973 23.8232 6.9541 19.6055 L 9.959 14 L 6.8154 14 C 9.8701 11.54 11.4883 9.7813 13.1523 7 ZM 17.4268 0 C 18.9951 0 20.2754 0.9697 20.2754 2.166 C 20.2754 3.3604 18.9951 4.3301 17.4268 4.3301 C 15.8555 4.3301 14.5801 3.3604 14.5801 2.166 C 14.5801 0.9697 15.8555 0 17.4268 0 Z" style="stroke: rgb(255, 255, 255); fill: rgb(255, 255, 255);"></path></svg>