<svg xmlns="http://www.w3.org/2000/svg" version="1.1" preserveAspectRatio="none" viewBox="0 0 26 26"><path stroke-width="0" d="M 5.0068 25.9834 C 6.5635 25.9834 8.2236 25.1904 9.707 23.707 L 15.707 17.707 C 16.6914 16.7227 17.8359 16.9722 18.4834 17.6201 C 18.8154 17.9517 19.002 18.3696 19.0088 18.7964 C 19.0166 19.2993 18.7715 19.814 18.2998 20.2861 L 14.793 23.793 C 14.4023 24.1836 14.4023 24.8164 14.793 25.207 C 15.1836 25.5977 15.8164 25.5977 16.207 25.207 L 19.7139 21.7002 C 20.8057 20.6089 21.0205 19.501 21.0078 18.7637 C 20.9922 17.8149 20.5986 16.9067 19.8975 16.2061 C 18.5586 14.8682 16.1416 14.4448 14.293 16.293 L 8.293 22.293 C 6.9609 23.624 5.543 24.2129 4.3926 23.9043 C 3.7207 23.7246 3.2217 23.25 3.0576 22.6348 C 2.8828 21.9849 3.1143 21.3003 3.707 20.707 C 4.0977 20.3169 4.0977 19.6836 3.707 19.293 C 3.3164 18.9023 2.6836 18.9023 2.293 19.293 C 1.1895 20.396 0.7637 21.8027 1.125 23.1523 C 1.4717 24.4463 2.5254 25.4746 3.875 25.8359 C 4.2432 25.9351 4.6221 25.9834 5.0068 25.9834 ZM 12.5752 12.0464 L 11.0479 13.5752 C 10.625 13.9961 9.9395 13.9961 9.5195 13.5752 L 9.4258 13.4814 C 9.0039 13.0601 9.0039 12.3745 9.4248 11.9526 L 10.9531 10.4248 C 11.373 10.0039 12.0605 10.0049 12.4814 10.4248 L 12.5752 10.5186 C 12.9951 10.9395 12.9961 11.6265 12.5752 12.0464 ZM 18.875 9.005 C 18.449 9.1731 17.9854 9.2671 17.5 9.2671 C 15.4229 9.2671 13.7334 7.5767 13.7334 5.499 C 13.7334 5.014 13.827 4.5506 13.995 4.125 L 18.875 9.005 ZM 17.501 1.7329 C 19.5752 1.7329 21.2666 3.4224 21.2666 5.499 C 21.2666 6.5045 20.8688 7.4186 20.225 8.095 L 14.905 2.775 C 15.5811 2.1311 16.4947 1.7329 17.501 1.7329 ZM 17.4971 0.1875 C 14.5645 0.1875 12.1875 2.5664 12.1875 5.499 C 12.1875 5.7778 12.2086 6.0528 12.25 6.32 C 12.1702 6.0393 12.102 5.7486 12.0439 5.4512 C 12.0439 5.4512 6.6631 13.4609 3.0186 17.1055 L 5.9063 19.9932 C 9.4609 16.4355 17.5547 10.9502 17.5547 10.9502 C 16.9303 10.8789 16.3676 10.7455 15.86 10.555 C 16.3768 10.7228 16.9274 10.8125 17.5 10.8125 C 20.4346 10.8125 22.8125 8.4336 22.8125 5.499 C 22.8125 2.5659 20.4277 0.1875 17.4971 0.1875 Z" style="stroke: rgb(72, 193, 87); fill: rgb(72, 193, 87); opacity: 1;"><title>Channel 2</title></path></svg>