<svg xmlns="http://www.w3.org/2000/svg" version="1.1" preserveAspectRatio="none" viewBox="0 0 26 26"><path stroke-width="0" d="M 12.999 1 C 13.5527 1 13.999 1.4463 13.999 1.999 C 13.999 2.5488 13.5527 2.999 12.999 2.999 C 12.4492 2.999 11.999 2.5488 11.999 1.999 C 11.999 1.4463 12.4492 1 12.999 1 ZM 5 4 L 9.667 4 L 9.2568 5.2314 C 7.5205 5.6787 7.001 6.7471 7.001 8 L 19.001 8 C 19.001 6.6836 18.5605 5.5684 16.7217 5.165 L 16.334 4 L 21 4 L 21 24 L 5 24 L 5 4 ZM 12.999 0.002 C 11.8965 0.002 10.998 0.8945 10.998 2 L 3 2 L 3 26 L 23 26 L 23 2 L 15.002 2 C 15.002 0.8945 14.1055 0.002 12.999 0.002 ZM 7 20 L 7 21 L 18 21 L 18 20 L 7 20 ZM 7 17 L 7 18 L 16 18 L 16 17 L 7 17 ZM 7 14 L 7 15 L 19 15 L 19 14 L 7 14 ZM 7 11 L 7 12 L 14 12 L 14 11 L 7 11 Z" style="stroke: rgb(255, 255, 255); fill: rgb(255, 255, 255);"><title>Transcribe</title></path></svg>