<svg xmlns="http://www.w3.org/2000/svg" version="1.1" preserveAspectRatio="none" viewBox="0 0 26 26"><path stroke-width="0" d="M 13 10.6475 C 10.6787 10.6475 8.7959 12.5293 8.7959 14.8516 C 8.7959 17.1729 10.6787 19.0557 13 19.0557 C 15.3223 19.0557 17.2041 17.1729 17.2041 14.8516 C 17.2041 12.5303 15.3223 10.6475 13 10.6475 ZM 9.3135 5.8574 C 9.3135 5.8574 9.0537 8.6455 13 8.6455 C 16.9453 8.6455 16.6855 5.8574 16.6855 5.8574 C 17.5684 5.8574 18.207 6.1611 18.207 6.1611 C 18.373 8.5771 18.8018 10.2861 20.4922 12.6074 C 22.3721 15.1875 23.5508 15.6631 23.8096 17.9922 C 24.3799 23.125 17.2744 23.6113 13 23.6113 C 8.7256 23.6113 1.6201 23.125 2.1904 17.9922 C 2.4492 15.6631 3.6279 15.1875 5.5078 12.6074 C 7.1973 10.2861 7.627 8.5771 7.792 6.1611 C 7.792 6.1611 8.4316 5.8574 9.3135 5.8574 ZM 13 2 L 13 2 C 15.4375 2 21.5645 2.5439 24.3389 4.5068 C 27.1133 6.4688 26.2178 11.0225 23.0928 10.3877 C 19.5742 9.6719 18.8447 7.9121 20.7139 6.2061 C 20.7139 6.2061 17.4678 4.7627 13 4.7627 C 8.5322 4.7627 5.2861 6.2061 5.2861 6.2061 C 7.1553 7.9121 6.4268 9.6719 2.9072 10.3877 C -0.2178 11.0225 -1.1133 6.4688 1.6611 4.5068 C 4.4355 2.5439 10.5625 2 13 2 Z" style="stroke: rgb(255, 46, 46); fill: rgb(255, 46, 46); opacity: 1;"><title>Call In Progress [Click for Details]</title></path></svg>